<?xml version="1.0" encoding="utf-8"?>
<!-- Generator: Adobe Illustrator 16.0.3, SVG Export Plug-In . SVG Version: 6.00 Build 0)  -->
<!DOCTYPE svg PUBLIC "-//W3C//DTD SVG 1.1//EN" "http://www.w3.org/Graphics/SVG/1.1/DTD/svg11.dtd">
<svg version="1.1" id="Layer_1" xmlns="http://www.w3.org/2000/svg" xmlns:xlink="http://www.w3.org/1999/xlink" x="0px" y="0px"
	 width="587.276px" height="594.7px" viewBox="0 0 587.276 594.7" enable-background="new 0 0 587.276 594.7" xml:space="preserve">
<path fill="none" stroke="#D7DF23" stroke-miterlimit="10" d="M157.711,111.288c4.744-30.588,46.253-82.862,71.594-99.435
	c30.049-19.651,79-29.32,111.095,91.786c32.094,121.107,90.041,50.22,111.094,43.343c31.227-10.199,135.782,12.748,135.782,61.191
	c0,61.191-115.198,53.09-143.188,63.741c-93.813,35.694-17.282,96.885-2.469,142.778s39.5,142.778-19.75,178.473
	c-37.787,22.766-49.161-216.718-101.005-114.732c-51.844,101.984-129.918,121.062-148.34,91.786
	c-42.134-66.96,56.781-117.282-54.313-117.282c-111.095,0,48.984-128.566-17.282-150.428
	c-177.751-58.641-83.938-81.587,2.469-86.687C189.805,210.723,153.169,140.573,157.711,111.288z"/>
</svg>
